<?xml version="1.0" encoding="UTF-8" standalone="no"?>

<!DOCTYPE svg PUBLIC "-//W3C//DTD SVG 1.1//EN" "http://www.w3.org/Graphics/SVG/1.1/DTD/svg11.dtd">

<svg fill="#000000" viewBox="0 0 64 64" version="1.1" xmlns="http://www.w3.org/2000/svg" xmlns:xlink="http://www.w3.org/1999/xlink" xml:space="preserve" xmlns:serif="http://www.serif.com/">
<path id="square" d="M50.005,56l-35.989,0c-3.309,0 -5.995,-2.686 -5.995,-5.995l0,-36.011c0,-3.308 2.686,-5.995 5.995,-5.995l35.989,0c3.309,0 5.995,2.687 5.995,5.995l0,36.011c0,3.309 -2.686,5.995 -5.995,5.995Zm-0.993,-4.001c1.65,0 2.989,-1.339 2.989,-2.989l0,-34.021c0,-1.649 -1.339,-2.989 -2.989,-2.989l-34.003,0c-1.65,0 -2.989,1.34 -2.989,2.989l0,34.021c0,1.65 1.339,2.989 2.989,2.989l34.003,0Z" fill="currentColor" stroke="currentColor" stroke-width="2.5" stroke-linejoin="round" />
</svg>